<?xml version="1.0" encoding="UTF-8"?>
<svg version="1.1" xmlns="http://www.w3.org/2000/svg" width="1280" height="1024">
<path d="M0 0 C15.77788702 11.58405211 25.03428296 29.90541341 28 49 C29.8777887 67.01317666 24.87275072 83.6383365 13.625 97.875 C9.50074709 102.65007841 5.09072103 107.24384431 0 111 C-0.66 111 -1.32 111 -2 111 C-2 125.19 -2 139.38 -2 154 C13.51 153.67 29.02 153.34 45 153 C46.72180462 145.98740266 46.72180462 145.98740266 47.17944336 139.23730469 C47.16960922 138.41905212 47.15977509 137.60079956 47.14964294 136.75775146 C47.12990921 135.90441223 47.11017548 135.051073 47.08984375 134.171875 C47.06941496 132.30078393 47.04924069 130.42969006 47.02929688 128.55859375 C46.98600436 125.65823984 46.93765079 122.75808265 46.88354492 119.85791016 C46.52504674 99.10033568 49.01317832 82.6882069 63.95336914 67.0402832 C65.28946806 65.68084431 66.64412208 64.33971246 68 63 C68.60714844 62.38253906 69.21429687 61.76507813 69.83984375 61.12890625 C83.82774406 47.96181183 103.78982874 46.56373148 122 47 C140.50468124 48.28851969 161.71468486 57.15364111 176 69 C176 69.66 176 70.32 176 71 C176.87374268 71.39155273 176.87374268 71.39155273 177.76513672 71.79101562 C180.14007555 73.07577607 181.80292259 74.48673006 183.7578125 76.34375 C184.46099609 77.00802002 185.16417969 77.67229004 185.88867188 78.35668945 C186.62666016 79.06398193 187.36464844 79.77127441 188.125 80.5 C188.88619141 81.22469482 189.64738281 81.94938965 190.43164062 82.69604492 C192.62681069 84.79149822 194.81442939 86.89454254 197 89 C197.53592773 89.51256348 198.07185547 90.02512695 198.62402344 90.55322266 C204.07340214 95.77633616 208.94384516 101.25243397 213.65234375 107.1484375 C216.16786284 110.2038933 218.80307211 113.10577005 221.5 116 C225.7899109 120.60968807 229.80413386 125.37786328 233.75390625 130.28515625 C236.88284821 134.06709479 240.21517445 137.6475587 243.5390625 141.2578125 C245.91039895 143.90015883 248.15252997 146.60694167 250.375 149.375 C254.76526628 154.81612788 259.46724831 159.91189551 264.234375 165.01953125 C266.32910924 167.26598689 268.37329669 169.54473428 270.375 171.875 C274.23721188 176.33862687 278.28529893 180.62758952 282.32373047 184.93115234 C282.8807666 185.52492676 283.43780273 186.11870117 284.01171875 186.73046875 C284.6248291 187.38370117 285.23793945 188.03693359 285.86962891 188.70996094 C287.45399057 190.41306802 289.02749841 192.12628518 290.59521484 193.84472656 C297.95462485 201.9091266 305.55106645 209.70654188 313.28320312 217.41357422 C315.26550244 219.3904601 317.24232633 221.37271039 319.21875 223.35546875 C325.30767023 229.44786962 331.38721092 235.47023794 338 241 C339.02201766 241.88796163 340.04290092 242.77723105 341.0625 243.66796875 C344.34492269 246.48334459 347.65808131 249.25568446 351 252 C351.91313965 252.75385986 351.91313965 252.75385986 352.84472656 253.52294922 C361.27569618 260.40291794 369.69117454 265.73989015 379.70556641 270.05908203 C384.71846134 272.23652847 388.16101439 274.18881181 391.2265625 278.875 C394.43668834 287.69473968 391.6439629 297.78491203 388 306 C380.20235781 322.03970957 369.18114642 330.233032 352.78125 336.1640625 C334.48926788 341.20850087 313.5081879 338.18333186 296.03198242 331.48168945 C293.62750212 330.91169791 292.30649667 331.16220476 290 332 C287.83697199 333.58462181 287.83697199 333.58462181 285.625 335.5625 C268.29016633 349.74554573 247.21959351 356.66616745 224.80078125 354.72265625 C213.03405691 353.36346367 202.96515378 349.72709283 193.12109375 343.13671875 C190.81347573 341.68509564 190.81347573 341.68509564 187 342 C185.11835193 342.69184364 185.11835193 342.69184364 183.28515625 343.71484375 C182.59873047 344.07126953 181.91230469 344.42769531 181.20507812 344.79492188 C180.49802734 345.17197266 179.79097656 345.54902344 179.0625 345.9375 C170.58949704 350.4341716 170.58949704 350.4341716 166 351 C166.28875 352.093125 166.5775 353.18625 166.875 354.3125 C172.83207421 378.45362942 172.36033999 404.91524267 160 427 C141.18290116 456.82332646 109.48019048 469.22509856 78.42048645 482.28227234 C70.91303239 485.4440291 63.45420932 488.71506219 56 492 C56.50748779 492.33620361 57.01497559 492.67240723 57.5378418 493.01879883 C87.24032461 512.78354821 116.56346141 537.59231857 125 574 C128.5583725 591.98420697 124.41634861 608.58327686 115 624 C112.23803645 627.91679152 109.25157492 631.4832257 106 635 C105.06414062 636.05574219 105.06414062 636.05574219 104.109375 637.1328125 C96.72207308 645.04777884 87.38542179 650.74511063 78 656 C79.38058594 656.87398437 79.38058594 656.87398437 80.7890625 657.765625 C104.58157027 673.06533564 121.48884888 690.68856974 128.2890625 718.703125 C132.30277849 737.31618156 129.87935383 756.81479096 120.0625 773.2421875 C106.28160983 794.15961008 86.4870285 806.9578188 62 812 C50.3652244 813.73578274 38.15305203 813.81568307 27.875 807.4296875 C24.11569114 804.56321449 21.51654986 801.54964959 20 797 C18.8170609 781.46969959 22.41428344 771.52615488 31.18261719 758.7878418 C36.98406478 750.26302148 42.81001458 740.8545452 42.734375 730.24609375 C40.86167665 724.51842592 36.42197848 721.19443321 31.25 718.5625 C24.35055605 715.32045359 17.33321373 713.26635845 9.984375 711.27734375 C8.2516333 710.80065247 8.2516333 710.80065247 6.48388672 710.31433105 C3.65734071 709.53754243 0.82941779 708.76624911 -2 708 C-1.99777939 709.04045975 -1.99555878 710.08091949 -1.99327087 711.15290833 C-1.97293245 720.99458072 -1.95797652 730.83624881 -1.94818783 740.67793751 C-1.94298608 745.73671665 -1.93593801 750.79547872 -1.92456055 755.85424805 C-1.91363493 760.74312697 -1.90770279 765.63198955 -1.90512276 770.52087975 C-1.90328586 772.37902775 -1.89969909 774.23717495 -1.89426994 776.09531593 C-1.81676384 803.74045608 -1.81676384 803.74045608 -7 813 C-7.52400391 813.94166016 -7.52400391 813.94166016 -8.05859375 814.90234375 C-13.84978036 824.0600333 -24.40338471 828.28022652 -34.60546875 830.58984375 C-43.98791981 832.19695201 -53.81212547 830.33518563 -61.875 825.25 C-69.37748911 819.70762066 -75.44595904 812.10298705 -78 803 C-79.05692069 795.75052888 -78.70040283 788.3499954 -78.5859375 781.046875 C-78.57472792 778.93411471 -78.56619608 776.82133868 -78.56021118 774.70855713 C-78.53745165 769.18446762 -78.47864053 763.66134525 -78.4119873 758.13763428 C-78.35028549 752.48642047 -78.32313686 746.8350483 -78.29296875 741.18359375 C-78.22888391 730.12197409 -78.12666222 719.06106789 -78 708 C-82.08928531 709.01913936 -86.16995937 710.06951123 -90.25 711.125 C-91.38953125 711.40859375 -92.5290625 711.6921875 -93.703125 711.984375 C-103.7985171 714.62294339 -115.30266817 718.10165881 -121.97265625 726.6796875 C-124.13949491 731.57361208 -122.64095259 736.12576304 -121 741 C-117.98242368 748.53394883 -113.65243797 755.17459711 -109.19506836 761.90722656 C-101.79134543 773.26245479 -99.58777676 784.24537686 -101.35546875 797.70703125 C-102.51588838 802.27861731 -104.2870489 804.62882207 -108.125 807.375 C-109.72490955 808.29507578 -111.35030486 809.17250019 -113 810 C-113.98613281 810.51046875 -113.98613281 810.51046875 -114.9921875 811.03125 C-128.87542213 816.86544977 -146.99649357 812.67065941 -160.390625 807.3046875 C-180.23331125 798.79498954 -195.55881231 784.44993523 -204.5390625 764.59765625 C-212.00516731 745.88873279 -213.01795741 724.80344365 -205.17041016 706.01367188 C-195.84847705 684.69196038 -180.26676547 668.29854521 -160 657 C-159.34 657 -158.68 657 -158 657 C-158 656.34 -158 655.68 -158 655 C-159.03060547 654.64421875 -159.03060547 654.64421875 -160.08203125 654.28125 C-177.97959799 646.42261293 -192.22426546 629.43285316 -199.9375 611.8125 C-200.65600906 609.88628422 -201.34508975 607.94875731 -202 606 C-202.31710937 605.11828125 -202.63421875 604.2365625 -202.9609375 603.328125 C-209.31248474 582.70016424 -204.05867608 560.61242259 -194.44140625 541.98046875 C-190.37178639 534.65891247 -185.55131849 528.25979096 -180 522 C-179.07960938 520.95392578 -179.07960938 520.95392578 -178.140625 519.88671875 C-169.04254702 510.1859903 -157.19826613 503.33359176 -145.86572266 496.57885742 C-145.13144043 496.14033447 -144.3971582 495.70181152 -143.640625 495.25 C-142.98610352 494.86328125 -142.33158203 494.4765625 -141.65722656 494.078125 C-139.83785337 492.97593291 -139.83785337 492.97593291 -138 491 C-139.48487915 490.4126709 -139.48487915 490.4126709 -140.99975586 489.81347656 C-227.55895752 455.49800801 -227.55895752 455.49800801 -243 423 C-248.24580305 409.65234557 -250.37358557 397.10698818 -250.3125 382.75 C-250.31048584 381.47471436 -250.30847168 380.19942871 -250.30639648 378.88549805 C-250.09659649 359.19319298 -250.09659649 359.19319298 -246 351 C-246.82242188 350.91878906 -247.64484375 350.83757812 -248.4921875 350.75390625 C-252.82753158 349.82214522 -256.24243873 348.02284599 -260.125 345.9375 C-261.51943582 345.18911013 -262.91777093 344.44793022 -264.3203125 343.71484375 C-264.93148926 343.38605225 -265.54266602 343.05726074 -266.17236328 342.71850586 C-268.29314271 341.75608303 -268.29314271 341.75608303 -272 342 C-274.68735534 343.39798912 -274.68735534 343.39798912 -277.5 345.25 C-293.83577127 355.00416982 -314.47061664 357.47427689 -332.99609375 353.12890625 C-345.66377049 349.75199145 -357.22507251 343.5915605 -366.9375 334.8125 C-370.14380645 331.94282601 -370.14380645 331.94282601 -374.109375 330.7421875 C-376.53097406 331.26110158 -378.68728453 332.10892433 -381 333 C-383.71430618 333.74872475 -386.45106125 334.40007231 -389.1875 335.0625 C-389.86514404 335.23612061 -390.54278809 335.40974121 -391.2409668 335.58862305 C-411.51571389 340.77611203 -430.32020238 338.6653965 -448.8046875 328.90625 C-460.4447399 321.96206226 -468.19175838 310.97833588 -472 298 C-475.11344906 284.49763282 -475.11344906 284.49763282 -472 278 C-467.52117863 272.41096232 -461.38410059 269.92447228 -455.0625 266.8125 C-445.3603383 261.90089369 -436.50368611 256.76196727 -428 250 C-427.06800781 249.27554687 -426.13601563 248.55109375 -425.17578125 247.8046875 C-415.25463284 239.90739676 -405.84831359 231.36398966 -397.49609375 221.81640625 C-394.29655003 218.20627945 -390.9946359 214.69890261 -387.6875 211.1875 C-383.10227361 206.3122134 -378.53100214 201.42573978 -374 196.5 C-369.52807203 191.6400654 -365.02144551 186.81388868 -360.5 182 C-354.43786519 175.54418013 -348.4096273 169.05889111 -342.41748047 162.53808594 C-340.99279565 160.99218267 -339.56156627 159.45257449 -338.12890625 157.9140625 C-332.97620637 152.36363527 -328.06198308 146.68417897 -323.3125 140.78125 C-320.35691854 137.22656419 -317.2282424 133.85654635 -314.0793457 130.47387695 C-311.14850201 127.30648578 -308.37972354 124.05902299 -305.6875 120.6875 C-301.41561901 115.37651282 -296.82128108 110.42087823 -292.13549805 105.47729492 C-289.24374221 102.42329945 -286.41040878 99.34212326 -283.6640625 96.15625 C-262.89857566 72.28372935 -238.55460014 51.06932502 -206 47 C-184.21607414 45.6088604 -164.3006765 49.2815447 -147.24609375 63.84375 C-135.6048159 75.01937673 -128.41536349 90.40650511 -127.69482422 106.63256836 C-127.59731837 111.54903627 -127.69597182 116.45971677 -127.8125 121.375 C-127.85541341 123.89210211 -127.89227011 126.40915461 -127.92399597 128.92642212 C-127.94522566 130.47486579 -127.97353092 132.02323746 -128.01069641 133.57138062 C-128.124298 139.79713548 -127.9812193 146.05634209 -126 152 C-121.07207251 153.2577181 -116.15864427 153.22419419 -111.10546875 153.31640625 C-109.84506775 153.34438293 -109.84506775 153.34438293 -108.5592041 153.3729248 C-105.43540458 153.44096517 -102.31144058 153.50127768 -99.1875 153.5625 C-92.195625 153.706875 -85.20375 153.85125 -78 154 C-78 139.48 -78 124.96 -78 110 C-79.32 109.34 -80.64 108.68 -82 108 C-94.80980063 99.06292979 -102.71567313 82.96726087 -106 68 C-106.39685549 64.03076675 -106.43045011 60.1113877 -106.375 56.125 C-106.3586853 54.53401489 -106.3586853 54.53401489 -106.34204102 52.91088867 C-105.94038293 33.21448574 -97.29331547 17.50223164 -83.21484375 3.91015625 C-59.94054529 -16.16238687 -25.21515658 -16.34436052 0 0 Z M-114.55078125 241.01953125 C-115.9600139 243.6343658 -117.15387745 246.10357546 -118.3125 248.8125 C-118.98903102 250.14137123 -119.67587077 251.46504591 -120.37304688 252.78320312 C-123.78984491 259.08398998 -123.78984491 259.08398998 -125 266 C-124.43152344 266.29132813 -123.86304688 266.58265625 -123.27734375 266.8828125 C-112.81600682 272.43657735 -107.49390273 277.7954036 -103 289 C-99.97638218 300.38410325 -102.16416465 312.83766938 -105 324 C-105.17692383 324.70479492 -105.35384766 325.40958984 -105.53613281 326.13574219 C-110.0463683 343.68593311 -116.59778387 356.12821574 -132.59765625 365.640625 C-139.87860375 369.65349131 -147.45368655 373.1489799 -154.9699707 376.69604492 C-156.11941162 377.23849854 -157.26885254 377.78095215 -158.453125 378.33984375 C-159.49629883 378.82831787 -160.53947266 379.31679199 -161.61425781 379.82006836 C-163.89760474 380.79082142 -163.89760474 380.79082142 -165 382 C-165.5972208 385.06075658 -165.47996882 387.15042016 -163.9296875 389.89453125 C-158.65980066 396.60767856 -151.46155055 400.23085269 -144 404 C-142.99565918 404.50837402 -141.99131836 405.01674805 -140.95654297 405.54052734 C-120.83068444 415.64286184 -100.38838017 424.87053994 -79 432 C-79 366.99 -79 301.98 -79 235 C-105.92380301 231.72967553 -105.92380301 231.72967553 -114.55078125 241.01953125 Z M-3 235 C-3 300.01 -3 365.02 -3 432 C16.94344633 424.06400739 16.94344633 424.06400739 36.75 415.8125 C38.420625 415.10963867 38.420625 415.10963867 40.125 414.39257812 C56.37136136 407.45009231 72.0390645 399.26914512 83 385 C79.35975403 380.0881134 76.06670326 377.51397803 70.5625 374.9375 C69.86237793 374.59517334 69.16225586 374.25284668 68.44091797 373.90014648 C63.9158111 371.73971688 59.40062159 370.07940061 54.625 368.5625 C40.77775481 363.82072434 34.1611993 352.41848765 27.86962891 339.97827148 C19.21984865 322.25720898 15.93553453 304.5851209 21.74609375 285.3515625 C25.01983402 276.6011913 29.75640161 271.39658581 38 267 C38.99 266.67 39.98 266.34 41 266 C40.32483298 262.62122514 39.03148244 259.95386077 37.3828125 256.9375 C36.85816406 255.97585938 36.33351563 255.01421875 35.79296875 254.0234375 C34.96732422 252.52683594 34.96732422 252.52683594 34.125 251 C33.58230469 250.00226563 33.03960938 249.00453125 32.48046875 247.9765625 C29.16353941 241.70698467 29.16353941 241.70698467 25 236 C22.06147107 235.29073484 22.06147107 235.29073484 18.6875 235.25 C17.57761719 235.19328125 16.46773437 235.1365625 15.32421875 235.078125 C9.21708696 234.96778838 3.10812843 235 -3 235 Z M-119.22265625 571.08984375 C-121.90394995 573.97149785 -124.05022437 576.55539639 -126 580 C-125.64104816 585.25906185 -123.03255433 587.55559708 -119.34765625 591.01953125 C-113.24045846 596.17152673 -106.53263487 599.35941866 -99.125 602.1875 C-98.19010742 602.54448975 -98.19010742 602.54448975 -97.23632812 602.90869141 C-91.20514024 605.10199036 -85.3242672 606.4189332 -79 608 C-79 588.86 -79 569.72 -79 550 C-91.72975734 550 -110.40538196 562.57719698 -119.22265625 571.08984375 Z M-3 551 C-3 570.14 -3 589.28 -3 609 C22.17251145 602.03279515 22.17251145 602.03279515 42 587 C42.66 586.34 43.32 585.68 44 585 C44 579.66474434 40.40334557 575.76748954 37 572 C28.18233964 563.38660977 9.85036421 551 -3 551 Z " fill="#012A32" transform="translate(688,94)"/>
<path d="M0 0 C7.1149134 5.60190018 11.15964897 12.47894691 14 21 C14.09489333 22.54191458 14.13532728 24.08750616 14.1418457 25.63232422 C14.14888016 26.57115448 14.15591461 27.50998474 14.16316223 28.4772644 C14.16732651 29.49281403 14.17149078 30.50836365 14.17578125 31.5546875 C14.19900331 33.71875947 14.22312156 35.88282198 14.24804688 38.046875 C14.28296297 41.44765334 14.3123929 44.8480888 14.32592773 48.24902344 C13.87715249 68.88718257 13.87715249 68.88718257 21.9375 87.375 C34.68419858 99.86065722 48.50918661 99.02204352 65.3125 98.9375 C67.71030576 98.95062756 70.10809657 98.96687664 72.50585938 98.98632812 C78.33851125 99.03269902 84.16590893 99.01491005 90 99 C90 108.9 90 118.8 90 129 C16.53305686 129.99329367 16.53305686 129.99329367 -3 114 C-10.14457152 106.82871981 -14.88006846 97.21519875 -15.05004883 86.98901367 C-15.01935303 85.89306885 -14.98865723 84.79712402 -14.95703125 83.66796875 C-14.93576172 82.45689453 -14.91449219 81.24582031 -14.89257812 79.99804688 C-14.8394331 77.46912143 -14.77443587 74.94041574 -14.69726562 72.41210938 C-14.59229726 65.08376276 -14.90856874 60.17032065 -19 54 C-24.29019607 49.39982951 -29.61356022 49.27323097 -36.49609375 49.4921875 C-48.14107756 51.17986631 -55.72026481 61.30709753 -62.953125 69.734375 C-65.53645435 72.59378535 -68.25896734 75.29266165 -71 78 C-74.28468953 81.24450984 -77.50734071 84.47922436 -80.5 88 C-83.97610577 92.0895362 -87.78249656 95.8096054 -91.59765625 99.578125 C-94.34325486 102.30308001 -96.99269952 105.05023473 -99.5 108 C-102.97610577 112.0895362 -106.78249656 115.8096054 -110.59765625 119.578125 C-113.34325486 122.30308001 -115.99269952 125.05023473 -118.5 128 C-121.97610577 132.0895362 -125.78249656 135.8096054 -129.59765625 139.578125 C-132.34325486 142.30308001 -134.99269952 145.05023473 -137.5 148 C-140.97610577 152.0895362 -144.78249656 155.8096054 -148.59765625 159.578125 C-151.34325486 162.30308001 -153.99269952 165.05023473 -156.5 168 C-159.97610577 172.0895362 -163.78249656 175.8096054 -167.59765625 179.578125 C-170.34325486 182.30308001 -172.99269952 185.05023473 -175.5 188 C-178.97409494 192.08717051 -182.77801379 195.80528997 -186.59106445 199.5715332 C-189.40069715 202.35997113 -192.11086525 205.17842305 -194.6875 208.1875 C-195.2340625 208.81011719 -195.780625 209.43273437 -196.34375 210.07421875 C-197.50349854 211.42269996 -198.62593565 212.80375828 -199.71875 214.20703125 C-208.89345766 224.89265307 -225.48055646 229.97177042 -239.23461914 231.19946289 C-252.61433175 231.83165926 -261.80335694 230.25667196 -272 221 C-274.81517015 217.97369208 -276.13000917 215.97351583 -277 212 C-276.030625 211.41734375 -275.06125 210.8346875 -274.0625 210.234375 C-259.05279731 201.10074687 -245.11975084 190.68980524 -232 179 C-231.19667236 178.28497314 -230.39334473 177.56994629 -229.56567383 176.83325195 C-220.9458633 169.04840461 -212.72606261 160.87886989 -204.52563477 152.65600586 C-202.17772944 150.302707 -199.82448032 147.9548461 -197.47070312 145.60742188 C-195.95280403 144.08886242 -194.43521494 142.56999304 -192.91796875 141.05078125 C-192.22616013 140.36099686 -191.5343515 139.67121246 -190.82157898 138.96052551 C-186.91714265 135.0374829 -183.19043029 131.01723428 -179.59468079 126.8087616 C-177.96464582 124.95989963 -176.25951962 123.22537493 -174.5 121.5 C-170.78817534 117.83733858 -167.38932772 113.96063486 -164 110 C-163.10428598 108.95692878 -162.2084427 107.91396855 -161.3125 106.87109375 C-155.16260111 99.70763879 -155.16260111 99.70763879 -149.05078125 92.51171875 C-143.16574098 85.56292747 -137.10811953 78.82120447 -130.86645508 72.19042969 C-127.41812026 68.52696498 -124.04111885 64.82414208 -120.76171875 61.0078125 C-118.89761902 58.88331747 -116.98301353 56.80938722 -115.0612793 54.73706055 C-111.06560857 50.42624598 -107.18872388 46.08115707 -103.5 41.5 C-98.58757001 35.42043239 -93.37965981 29.6638153 -88 24 C-87.4838916 23.45520996 -86.9677832 22.91041992 -86.43603516 22.34912109 C-64.29371119 -0.85819137 -31.03512824 -20.09694645 0 0 Z " fill="#CACDFC" transform="translate(520,175)"/>
<path d="M0 0 C0.85980469 0.268125 1.71960938 0.53625 2.60546875 0.8125 C26.6780767 8.96119663 44.1679883 28.0201522 59.75 47.28125 C62.64829204 50.78335288 65.70310973 54.1261686 68.765625 57.484375 C71.01181566 60.01330295 73.13531218 62.61049914 75.25 65.25 C79.35081332 70.32583187 83.73632724 75.06552515 88.20654297 79.81201172 C91.4093284 83.23123939 94.45548038 86.70632063 97.375 90.375 C102.92104108 97.29483107 109.07826541 103.63513185 115.17480469 110.06591797 C117.27515771 112.29157295 119.35370013 114.5361354 121.4236908 116.79000854 C134.66132595 131.19663967 148.14988482 145.31572058 162.00292969 159.13330078 C164.52918029 161.65411752 167.04994144 164.18033738 169.5703125 166.70703125 C171.20280394 168.33886292 172.83560501 169.97038491 174.46875 171.6015625 C175.57833069 172.71417953 175.57833069 172.71417953 176.71032715 173.84927368 C181.31428191 178.43274636 186.06782747 182.77321341 191 187 C191.98742187 187.86882812 192.97484375 188.73765625 193.9921875 189.6328125 C206.16924407 200.15986141 219.22879109 209.6584087 233 218 C232.03613127 224.61100553 228.27240358 228.18207713 223.1875 232.25 C216.10448978 236.13871149 209.41183983 237.53701276 201.375 237.4375 C200.50617188 237.42992676 199.63734375 237.42235352 198.7421875 237.41455078 C190.68924197 237.21174682 183.6007747 235.77111578 176 233 C174.989375 232.64550781 173.97875 232.29101562 172.9375 231.92578125 C160.95021221 226.87262935 152.09500007 215.84847158 143.8671875 206.0859375 C140.65513072 202.49757281 137.18308509 199.1641979 133.75952148 195.77905273 C130.29580909 192.33931413 127.02859965 188.81428338 123.87109375 185.08984375 C120.85849309 181.72503925 117.61427958 178.59454812 114.40209961 175.42163086 C111.06940938 172.11400237 107.94791884 168.70343393 104.90625 165.125 C102.37749539 162.30606044 99.69353754 159.66061424 97 157 C93.73617385 153.77601913 90.53169859 150.56482153 87.5625 147.0625 C84.3999004 143.34042332 80.97029586 139.9313366 77.5 136.5 C73.44535194 132.49087142 69.56021851 128.44135501 65.87109375 124.08984375 C63.3561655 121.28089466 60.68164678 118.64891383 58 116 C54.73617703 112.77601619 51.53169881 109.56482179 48.5625 106.0625 C45.3999004 102.34042332 41.97029586 98.9313366 38.5 95.5 C34.44800782 91.49349749 30.56403027 87.44776506 26.87890625 83.09765625 C23.84993221 79.71603659 20.59801426 76.55610385 17.34936523 73.38647461 C14.88949066 70.96873921 12.59638824 68.54471745 10.453125 65.83984375 C8.05711425 63.06611794 6.03892468 61.48232577 2.875 59.6875 C2.02679687 59.19636719 1.17859375 58.70523438 0.3046875 58.19921875 C-5.50849979 55.17439079 -11.5952086 55.2060176 -18 56 C-22.46571848 57.9947336 -25.155703 60.83909162 -28 64.75 C-29.64791586 70.10572653 -29.45530191 75.382014 -28.5 80.875 C-26.46711039 93.58056006 -29.41649486 103.8856669 -36.25 114.6484375 C-45.29585164 126.80380064 -58.52549185 130.87393043 -72.8605957 133.5300293 C-78.58980155 134.32895157 -84.38091562 134.12226067 -90.15234375 134.09765625 C-92.03524864 134.09553383 -92.03524864 134.09553383 -93.95619202 134.09336853 C-97.27205351 134.08873576 -100.58784452 134.07977139 -103.90368652 134.06866455 C-107.2958108 134.05838292 -110.6879426 134.05380149 -114.08007812 134.04882812 C-120.72009141 134.0386783 -127.35998234 134.0190988 -134 134 C-134 124.43 -134 114.86 -134 105 C-130.59042969 104.97421875 -127.18085937 104.9484375 -123.66796875 104.921875 C-120.33496136 104.8833701 -117.00210427 104.838237 -113.66918945 104.79248047 C-111.36783119 104.76440135 -109.06637883 104.74312245 -106.76489258 104.72900391 C-103.44043246 104.70739311 -100.11708836 104.66064958 -96.79296875 104.609375 C-95.7779277 104.60814636 -94.76288666 104.60691772 -93.71708679 104.60565186 C-84.43325131 104.4188868 -76.02526071 102.34539677 -69 96 C-68.34 96 -67.68 96 -67 96 C-65.25309151 92.54837888 -63.58448587 89.0628508 -61.9375 85.5625 C-61.41027344 84.45003906 -60.88304687 83.33757812 -60.33984375 82.19140625 C-58.53268652 77.88689471 -57.88105139 74.00124141 -57.84228516 69.35253906 C-57.82689194 68.0152475 -57.82689194 68.0152475 -57.81118774 66.65093994 C-57.80388641 65.69878601 -57.79658508 64.74663208 -57.7890625 63.765625 C-57.76098861 61.72655455 -57.73232411 59.68749215 -57.703125 57.6484375 C-57.66195009 54.45150018 -57.62503892 51.25471252 -57.59863281 48.05761719 C-57.57086415 44.95997484 -57.52499134 41.86300439 -57.4765625 38.765625 C-57.47330963 37.82156799 -57.47005676 36.87751099 -57.46670532 35.90484619 C-57.28262872 25.8586281 -54.56154239 18.5650724 -48 11 C-47.46246094 10.36835938 -46.92492187 9.73671875 -46.37109375 9.0859375 C-35.05265721 -3.25667311 -15.3140308 -4.78733467 0 0 Z " fill="#CACCFC" transform="translate(819,169)"/>
<path d="M0 0 C3.00205396 4.30729481 2.51917675 9.96595708 2 15 C-0.37138634 27.69472689 -4.37046879 41.23493298 -15.12133789 49.16113281 C-21.1651116 53.02184892 -27.66750447 56.02697964 -34.125 59.125 C-36.27736955 60.16315619 -38.42801096 61.20448355 -40.57516479 62.25338745 C-41.89987767 62.90003595 -43.22758044 63.54061305 -44.55886841 64.1736145 C-50.44089823 67.03586824 -56.55221747 70.28148589 -59.875 76.125 C-60.26429688 76.78757812 -60.65359375 77.45015625 -61.0546875 78.1328125 C-64.80517098 85.54079226 -63.2275026 93.76839423 -60.90625 101.3984375 C-53.71634571 122.03842137 -28.78751773 133.28467917 -10.27832031 142.33007812 C-2.94022694 145.75713778 4.52408612 148.88818693 12 152 C12.7464679 152.31106689 13.49293579 152.62213379 14.26202393 152.94262695 C22.066726 156.19354521 29.87653195 159.43209873 37.69091797 162.65966797 C168.87434056 216.84928436 168.87434056 216.84928436 198 243 C198.83402344 243.69222656 199.66804688 244.38445312 200.52734375 245.09765625 C213.5278109 256.13503283 224.65357476 271.29451184 226.25 288.73046875 C226.80626908 302.16784376 221.15859325 314.86730027 212.8125 325.25 C205.5419022 332.93332096 195.19963954 337.80646004 186.07397461 342.99169922 C184.88940709 343.66976767 183.70974477 344.35647082 182.53491211 345.05126953 C170.61787687 352.09143673 170.61787687 352.09143673 165.18334961 350.71435547 C164.46284424 350.47861816 163.74233887 350.24288086 163 350 C161.46194702 349.59031982 161.46194702 349.59031982 159.89282227 349.17236328 C156.28347252 348.19577773 152.7058399 347.13865667 149.125 346.0625 C147.27261719 345.52206055 147.27261719 345.52206055 145.3828125 344.97070312 C143.619375 344.44573242 143.619375 344.44573242 141.8203125 343.91015625 C140.75055176 343.59183838 139.68079102 343.27352051 138.57861328 342.94555664 C136 342 136 342 134 340 C134.87398437 339.69932617 134.87398437 339.69932617 135.765625 339.39257812 C168.94246664 328.40923185 168.94246664 328.40923185 192.3125 304 C196.27306037 295.47526444 198.34503817 288.72392462 195.17578125 279.63671875 C182.55011162 249.9439384 147.45282278 237.95495103 120 226 C118.34063676 225.27560101 116.68129493 224.55115298 115.02197266 223.82666016 C93.53618562 214.45516747 71.97023677 205.27771823 50.36431885 196.18716431 C31.52213244 188.25663526 12.77244169 180.12321356 -5.94464111 171.90234375 C-7.88957765 171.04847763 -9.83502897 170.19579996 -11.78076172 169.34375 C-18.86021076 166.24346342 -25.93352133 163.12973242 -33 160 C-33.89686523 159.60377441 -34.79373047 159.20754883 -35.71777344 158.79931641 C-40.7399801 156.57728726 -45.7493716 154.33037601 -50.73925781 152.03662109 C-52.22280451 151.35636847 -53.70906901 150.6820057 -55.19824219 150.01416016 C-69.23339467 143.68904461 -81.13300376 135.64851579 -89 122 C-89.54269531 121.07574219 -90.08539063 120.15148437 -90.64453125 119.19921875 C-99.45868386 103.00777052 -99.93216859 85.50124339 -95 68 C-90.7369497 54.30656572 -83.26205382 42.83819683 -74 32 C-73.33613281 31.19046875 -72.67226563 30.3809375 -71.98828125 29.546875 C-56.34887618 11.16117884 -24.85348602 -12.75417288 0 0 Z " fill="#23832B" transform="translate(560,387)"/>
<path d="M0 0 C0.86560547 0.36802734 1.73121094 0.73605469 2.62304688 1.11523438 C4.72920883 2.01122592 6.83397192 2.91034655 8.9375 3.8125 C8.9375 4.8025 8.9375 5.7925 8.9375 6.8125 C8.28080322 7.10793701 7.62410645 7.40337402 6.94750977 7.70776367 C-5.71001887 13.42311203 -18.27109404 19.27681492 -30.625 25.625 C-31.63941162 26.13893311 -32.65382324 26.65286621 -33.69897461 27.18237305 C-46.80269298 34.00119825 -58.99486023 43.32333916 -64.24609375 57.61328125 C-66.96390002 68.26344076 -65.33966682 78.24225341 -60.0625 87.8125 C-57.37003764 91.5309103 -54.46678028 94.7367029 -51.0625 97.8125 C-50.48822266 98.34875 -49.91394531 98.885 -49.32226562 99.4375 C-42.43528933 105.37612724 -34.49504059 108.08536171 -26.0625 111.0625 C-24.50295562 111.62522834 -22.94371602 112.18880202 -21.38476562 112.75317383 C-16.62075815 114.46874666 -11.84346879 116.14488135 -7.0625 117.8125 C-6.3420752 118.06489441 -5.62165039 118.31728882 -4.87939453 118.57733154 C21.28148294 127.7353036 47.7969636 135.70796876 74.75 142.1875 C160.21434645 162.91960133 160.21434645 162.91960133 179.9375 193.8125 C187.30413918 207.0389658 189.50869682 220.50947064 185.50341797 235.35644531 C181.20993968 249.14761799 172.92468049 259.24776558 160.20458984 266.06396484 C150.95918187 270.78109833 141.49219549 274.53213833 130.9375 273.8125 C132.35539866 269.09581671 134.33856217 264.87165861 136.6875 260.5625 C137.21875488 259.57407104 137.21875488 259.57407104 137.76074219 258.56567383 C139.79740136 254.80593488 141.93047677 251.13311648 144.1875 247.5 C151.60487341 235.37350397 154.39824136 221.3516752 151.13671875 207.3828125 C146.20789955 194.34091978 136.16038819 186.21899358 123.87879944 180.35112 C114.9857267 176.45127928 106.03668175 173.59394097 96.68359375 171.01953125 C95.14419767 170.58796525 93.60505965 170.15547782 92.06616211 169.72213745 C88.83403068 168.81369215 85.6004318 167.91077719 82.365448 167.01254272 C77.33001444 165.61406142 72.29849153 164.20188886 67.26782227 162.78637695 C66.43742652 162.55274665 65.60703077 162.31911634 64.75147152 162.07840633 C63.08674763 161.60999893 61.4220375 161.14154264 59.75734138 160.67303658 C57.29430877 159.98023567 54.83096232 159.288561 52.36753845 158.59715271 C28.10227091 151.78316779 3.89431696 144.72122306 -20.03955078 136.81152344 C-22.15612671 136.112038 -24.27444535 135.417814 -26.39404297 134.72753906 C-44.82395322 128.70523879 -60.99145525 122.30319921 -76.0625 109.8125 C-77.06023438 108.98685547 -77.06023438 108.98685547 -78.078125 108.14453125 C-88.21572808 98.8973933 -94.11654288 85.76135935 -95.40234375 72.23828125 C-95.8298511 56.69411386 -90.92810853 43.11207616 -80.5625 31.4375 C-79.08347781 29.87569672 -77.58100891 28.33593913 -76.0625 26.8125 C-75.54743896 26.27262451 -75.03237793 25.73274902 -74.50170898 25.17651367 C-70.35729693 20.89362204 -66.00654593 17.28666771 -61.125 13.875 C-60.38918701 13.35921387 -59.65337402 12.84342773 -58.89526367 12.31201172 C-39.14160927 -1.21996942 -22.4606646 -9.63595619 0 0 Z " fill="#64B96D" transform="translate(603.0625,607.1875)"/>
<path d="M0 0 C25.17247986 5.6272563 47.84021676 25.81653423 61.68896484 46.87109375 C73.19124175 65.54890653 78.83918811 85.3868177 74.9375 107.1875 C70.65462001 124.53814407 60.45265084 137.09477107 45.51464844 146.50878906 C29.08580602 156.25125212 11.58708514 164.5951921 -6 172 C-7.4515242 172.61614779 -8.90301915 173.2323645 -10.35449219 173.84863281 C-14.50683443 175.60754882 -18.66782763 177.3447342 -22.83422852 179.07006836 C-24.51792434 179.76914107 -26.19976314 180.47270451 -27.87963867 181.1809082 C-30.25507875 182.17971306 -32.63784933 183.15853868 -35.0234375 184.1328125 C-35.73829315 184.43748444 -36.4531488 184.74215637 -37.18966675 185.05606079 C-42.91245374 187.35439311 -46.29674202 186.99680548 -51.96020508 184.90844727 C-52.96978271 184.46557373 -53.97936035 184.0227002 -55.01953125 183.56640625 C-56.6756543 182.8403418 -56.6756543 182.8403418 -58.36523438 182.09960938 C-59.50283203 181.59236328 -60.64042969 181.08511719 -61.8125 180.5625 C-62.96943359 180.05912109 -64.12636719 179.55574219 -65.31835938 179.03710938 C-73.87262651 175.25474698 -73.87262651 175.25474698 -75 173 C-74.04448242 172.59273682 -73.08896484 172.18547363 -72.10449219 171.76586914 C-40.79993104 158.64562342 -40.79993104 158.64562342 -10.15478516 144.0859375 C-6.38382291 142.16114592 -2.58430492 140.33908409 1.2734375 138.59375 C21.12476408 129.57041974 32.63678002 119.71159848 41 99 C42.66344045 93.45519851 42.84456263 88.23509511 40.4375 82.9375 C33.41143607 70.42767885 19.72165183 65.18392968 7.12304688 59.87695312 C-3.66250458 55.16158572 -13.74942769 48.27871008 -18.1875 37 C-25.91546603 13.52509064 -25.91546603 13.52509064 -21.6875 4.0625 C-16.5835812 -2.17562298 -7.36784761 -0.90512198 0 0 Z " fill="#64B96D" transform="translate(755,384)"/>
<path d="M0 0 C0.34611328 1.92199219 0.34611328 1.92199219 0.69921875 3.8828125 C3.32229651 17.98971923 6.04912563 31.37309102 15 43 C8.45579659 51.42733133 1.78602553 59.73602968 -5.01391602 67.95849609 C-8.68155429 72.39436613 -12.30990691 76.85677921 -15.890625 81.36328125 C-18.67525618 84.84407023 -21.49568627 88.29524046 -24.3125 91.75 C-28.47255358 96.85375003 -32.57972626 101.99237856 -36.625 107.1875 C-40.58632863 112.27071585 -44.68405258 117.21172913 -48.87548828 122.10620117 C-52.18850775 125.99296735 -55.36403171 129.96955158 -58.5 134 C-59.87689887 135.7509767 -61.25532252 137.50074562 -62.63378906 139.25048828 C-63.54481651 140.41711135 -64.44784959 141.59002147 -65.34277344 142.76904297 C-73.37740181 153.33613456 -81.65622102 159.89076995 -95 163 C-97.7776309 163.20988968 -100.4154531 163.33466371 -103.1875 163.3125 C-103.93217529 163.30686035 -104.67685059 163.3012207 -105.4440918 163.29541016 C-118.97862409 163.00095937 -132.05450198 158.39297035 -142 149 C-137.6028106 142.68542525 -132.56907007 137.35576773 -127.0625 132 C-122.06560883 127.11563265 -117.22995801 122.20491541 -112.67749023 116.90234375 C-109.93089791 113.78759373 -106.96614067 110.90372154 -104 108 C-99.78762267 103.83599657 -95.72738408 99.64690482 -91.90234375 95.12109375 C-88.67429841 91.52185634 -85.1922629 88.17331789 -81.75537109 84.77490234 C-78.913276 81.9524361 -76.15009878 79.12416268 -73.5625 76.0625 C-69.686001 71.48648238 -65.3747532 67.35013799 -61.11572266 63.13525391 C-57.54318081 59.58558242 -54.15403123 55.96851023 -50.90234375 52.12109375 C-47.67498815 48.52262539 -44.19375027 45.1747647 -40.75756836 41.77709961 C-37.89409544 38.93342314 -35.11115316 36.08116073 -32.5 33 C-28.83877424 28.6797536 -24.79225291 24.76639193 -20.76879883 20.78833008 C-17.22472858 17.26888212 -13.86649589 13.66105658 -10.62890625 9.85546875 C-1.97684211 0 -1.97684211 0 0 0 Z " fill="#E5E5FD" transform="translate(478,259)"/>
<path d="M0 0 C6.54232982 5.45194152 12.65642323 11.20043465 18.1875 17.6875 C21.44430063 21.48335728 24.9461273 24.98622176 28.5 28.5 C32.53299929 32.48775459 36.39402474 36.5149492 40.0625 40.84375 C42.76030603 43.84614704 45.63044038 46.66260582 48.5 49.5 C51.92844828 52.89006118 55.3226072 56.25193982 58.4375 59.9375 C61.74572637 63.84269956 65.36513493 67.40281168 69 71 C73.21010629 75.16646694 77.2724121 79.35285402 81.09765625 83.87890625 C83.78152487 86.87139221 86.64234089 89.67433259 89.5 92.5 C92.92844551 95.89006381 96.32260699 99.25193957 99.4375 102.9375 C102.74572637 106.84269956 106.36513493 110.40281168 110 114 C114.20811357 118.16449488 118.2727912 122.34530081 122.08984375 126.875 C125.32170576 130.47036387 128.81294368 133.81825342 132.29516602 137.17016602 C136.0458649 140.83941404 139.0526875 144.65572711 142 149 C129.79707223 160.40708466 115.90389062 163.84099452 99.5390625 163.34765625 C87.78800503 162.67222464 78.25637873 156.77725577 70.4375 148.25 C66.95276148 144.2074634 63.58933136 140.07379405 60.28515625 135.8828125 C57.4533541 132.31038518 54.56964083 128.78183808 51.6875 125.25 C47.11918507 119.64271522 42.61598387 113.99055605 38.16479492 108.29003906 C34.66277027 103.81624841 31.09214568 99.40164329 27.5 95 C22.99240027 89.47660315 18.55157358 83.90815564 14.1640625 78.2890625 C10.13075024 73.13668094 6.00167952 68.06520159 1.86450195 62.99609375 C-3.51056615 56.39850228 -8.76755158 49.71095588 -14 43 C-12.82694165 40.62470275 -11.61721538 38.27593752 -10.37890625 35.93359375 C-4.25529785 24.14729372 -1.64132594 13.2271561 0 0 Z " fill="#E5E5FD" transform="translate(815,259)"/>
<path d="M0 0 C7.59 0 15.18 0 23 0 C23.11397595 41.09719187 23.20250332 82.19435898 23.25532665 123.29167731 C23.26158045 128.13968292 23.26805203 132.98768822 23.2746582 137.83569336 C23.27596976 138.800875 23.27728131 139.76605664 23.2786326 140.76048621 C23.3004102 156.40426891 23.33984464 172.04796007 23.38576398 187.6916884 C23.4324632 203.73448322 23.46028154 219.77722999 23.47044247 235.82009 C23.47731523 245.7255321 23.49904936 255.6307155 23.53958233 265.536078 C23.56594011 272.32152711 23.57401687 279.1068418 23.56750689 285.89233843 C23.56429306 289.81177845 23.56934096 293.73076534 23.59602737 297.6501255 C23.62025767 301.23479369 23.62165551 304.81870162 23.60449447 308.4034039 C23.60136234 310.32192851 23.62301946 312.24044345 23.64540654 314.15884 C23.6354513 315.28994992 23.62549606 316.42105983 23.61523914 317.58644581 C23.61713775 318.56650398 23.61903635 319.54656215 23.62099248 320.55631906 C23 323 23 323 20.64294404 324.81124753 C17.59532105 326.18201789 15.39644658 326.43320921 12.0625 326.4375 C10.56396484 326.46650391 10.56396484 326.46650391 9.03515625 326.49609375 C4.83072835 325.80888353 3.10165842 325.00137903 0 322 C-0.93110312 317.7842069 -0.78208885 313.59576103 -0.7215271 309.2946167 C-0.72665365 307.97629514 -0.7317802 306.65797358 -0.7370621 305.29970288 C-0.75049859 301.637039 -0.72645334 297.97542489 -0.69639373 294.31289482 C-0.67051839 290.36473472 -0.67924865 286.41663533 -0.68380737 282.46841431 C-0.68695577 275.62679735 -0.66810746 268.78552331 -0.63438034 261.94399261 C-0.58564839 252.05230999 -0.56999481 242.16079344 -0.56245239 232.26900378 C-0.54931581 216.22090848 -0.50937318 200.17299601 -0.45263672 184.125 C-0.39757501 168.53451453 -0.35509839 152.94407868 -0.32958984 137.35351562 C-0.3280135 136.39275394 -0.32643716 135.43199226 -0.32481305 134.44211659 C-0.31698291 129.6223285 -0.30940064 124.80254005 -0.30194163 119.98275137 C-0.23972631 79.98837165 -0.13358877 39.99420079 0 0 Z " fill="#E5E6FA" transform="translate(635,216)"/>
<path d="M0 0 C9.88839827 7.16432161 16.94238225 16.81673702 19 29 C20.31652802 41.78912937 16.09658639 52.43466492 8.296875 62.4921875 C1.19354852 70.24786029 -8.0079995 76.34166229 -18.609375 77.33984375 C-32.56912671 77.69023912 -42.32882643 74.18871966 -52.6875 64.875 C-59.95141202 57.25633879 -63.84722657 46.64053947 -64.375 36.25 C-64.05063454 23.79055016 -57.63130812 12.10911187 -48.75 3.625 C-35.0527932 -7.48825961 -15.44528208 -9.14803209 0 0 Z " fill="#FCC42B" transform="translate(670,114)"/>
<path d="M0 0 C1.30760727 0.47813191 2.61554803 0.95535282 3.92382812 1.43164062 C7.09843822 2.59136904 10.26938451 3.76017055 13.4375 4.9375 C10.63991404 6.80255731 8.62528288 7.62472564 5.45703125 8.6015625 C4.46509766 8.91496582 3.47316406 9.22836914 2.45117188 9.55126953 C1.39478516 9.88497559 0.33839844 10.21868164 -0.75 10.5625 C-18.36927106 16.28902638 -38.18748287 23.73124581 -47.2578125 41.203125 C-52.21070846 55.3796775 -47.46481746 70.41410425 -41.39355469 83.44677734 C-37.4521285 91.56611529 -33.3537639 99.24135898 -27.69921875 106.30419922 C-26.5625 107.9375 -26.5625 107.9375 -26.5625 109.9375 C-43.38177072 108.31533683 -58.96666851 104.86774125 -71.0078125 91.93359375 C-79.42583277 81.12553255 -84.10320282 66.86930958 -83.97265625 53.19921875 C-81.80773921 35.98297374 -70.81329036 20.83839019 -58 9.8125 C-39.34045077 -4.50088093 -21.98031078 -8.17800555 0 0 Z " fill="#23832B" transform="translate(586.5625,771.0625)"/>
<path d="M0 0 C1.33984375 0.44661458 2.6796875 0.89322917 4.01953125 1.33984375 C4.84404785 1.61425293 5.66856445 1.88866211 6.51806641 2.17138672 C8.01881169 2.67242247 9.51874015 3.17592712 11.01708984 3.68408203 C20.35695794 6.84290397 29.16515916 8.9704151 39 10 C37.61249991 13.80371583 35.84928061 16.99771194 33.62890625 20.37890625 C32.97212891 21.38244141 32.31535156 22.38597656 31.63867188 23.41992188 C30.95353516 24.45697266 30.26839844 25.49402344 29.5625 26.5625 C28.88123047 27.60341797 28.19996094 28.64433594 27.49804688 29.71679688 C19.24342531 42.28872296 19.24342531 42.28872296 12 44.625 C-18.82746884 55.42885311 -41.08660663 76.12990994 -59 103 C-65.97986313 102.68978386 -71.07291522 99.5048042 -77 96 C-74.96877826 92.44851603 -72.74512927 89.32671148 -70.125 86.1875 C-69.32835937 85.22585938 -68.53171875 84.26421875 -67.7109375 83.2734375 C-67.27620117 82.74975586 -66.84146484 82.22607422 -66.39355469 81.68652344 C-63.82537024 78.57842635 -61.28979489 75.44380075 -58.75 72.3125 C-57.63026592 70.93354699 -56.51047356 69.5546413 -55.390625 68.17578125 C-54.54854492 67.1386499 -54.54854492 67.1386499 -53.68945312 66.08056641 C-50.96041309 62.71974572 -48.23015975 59.3599111 -45.5 56 C-44.41666054 54.66667165 -43.33332721 53.33333831 -42.25 52 C-28.16666667 34.66666667 -14.08333333 17.33333333 0 0 Z " fill="#E4E5FC" transform="translate(512,318)"/>
<path d="M0 0 C2.235605 1.62505989 3.66386017 3.30551782 5.33984375 5.5078125 C6.03335938 6.40242188 6.726875 7.29703125 7.44140625 8.21875 C7.82844727 8.71987305 8.21548828 9.22099609 8.61425781 9.73730469 C11.09748917 12.90959038 13.66478876 16.01421209 16.21484375 19.1328125 C20.78375341 24.7396028 25.28636988 30.39226926 29.73754883 36.09277344 C33.78099359 41.25822119 37.92055902 46.34248985 42.06860352 51.42407227 C45.54128049 55.68592395 48.96051481 59.98419312 52.33984375 64.3203125 C57.68419329 71.1709232 63.20002942 77.87602944 68.73828125 84.5703125 C69.27163086 85.21613281 69.80498047 85.86195313 70.35449219 86.52734375 C71.36785544 87.74210096 72.39163016 88.94826585 73.42675781 90.14453125 C76.90234375 94.17943495 76.90234375 94.17943495 76.90234375 96.3828125 C74.46729866 97.389178 72.02963511 98.38807663 69.58984375 99.3828125 C68.89955078 99.66898437 68.20925781 99.95515625 67.49804688 100.25 C64.48688701 101.47191994 62.18347391 102.3828125 58.90234375 102.3828125 C57.44097873 100.32472343 56.16825033 98.30688786 54.90234375 96.1328125 C50.34990808 88.68613194 44.98098636 82.60726963 38.90234375 76.3828125 C38.25910156 75.67769531 37.61585938 74.97257812 36.953125 74.24609375 C24.68101898 61.12212788 7.47305119 50.49812122 -9.66772461 45.27124023 C-17.8992159 42.71387422 -21.96827753 38.82863444 -25.9921875 31.34375 C-26.32428223 30.7053418 -26.65637695 30.06693359 -26.99853516 29.40917969 C-29.01434687 25.6927787 -31.37087604 22.18469959 -33.66015625 18.6328125 C-38.09765625 11.70113704 -38.09765625 11.70113704 -38.09765625 9.3828125 C-37.20046875 9.22425781 -36.30328125 9.06570313 -35.37890625 8.90234375 C-24.91221228 6.94524498 -14.07058521 4.66832802 -4.38671875 0.10546875 C-2.09765625 -0.6171875 -2.09765625 -0.6171875 0 0 Z " fill="#E4E4FC" transform="translate(781.09765625,318.6171875)"/>
<path d="M0 0 C4.57259678 1.88119053 4.57259678 1.88119053 6.04296875 3.3515625 C6.17025311 6.32757641 6.23225482 9.28085575 6.25170898 12.25830078 C6.26638466 13.66079826 6.26638466 13.66079826 6.28135681 15.09162903 C6.31139394 18.20169639 6.33272266 21.31172035 6.3515625 24.421875 C6.35813433 25.48237942 6.36470615 26.54288383 6.37147713 27.63552475 C6.4041119 33.25212011 6.42854906 38.86869621 6.44799805 44.48535156 C6.46579678 49.13569803 6.50058866 53.78543648 6.55053711 58.43554688 C6.61073119 64.04535161 6.64147379 69.65459332 6.65117073 75.26470566 C6.65973077 77.40254126 6.67856226 79.54036162 6.70791435 81.67801285 C6.74684626 84.67549265 6.74786066 87.6707842 6.73999023 90.66845703 C6.75999084 91.54874069 6.77999146 92.42902435 6.80059814 93.33598328 C6.73374578 99.02142094 5.46923604 101.94570213 1.52627659 106.06307793 C-0.6128504 107.92124388 -1.85742518 108.34024363 -4.70703125 108.6640625 C-9.44962186 108.20804417 -12.20305616 106.00082869 -15.61152649 102.7958374 C-17.71205575 98.97996763 -17.34938487 95.27829193 -17.29760742 90.99316406 C-17.2980455 90.04648361 -17.29848358 89.09980316 -17.29893494 88.12443542 C-17.29684571 84.99680932 -17.27350797 81.86971992 -17.25 78.7421875 C-17.24440453 76.57314344 -17.2401342 74.40409559 -17.23713684 72.23504639 C-17.22568424 66.5270541 -17.19621328 60.81929094 -17.1630249 55.11138916 C-17.1323331 49.28653055 -17.11863339 43.46163491 -17.10351562 37.63671875 C-17.07134415 26.20823268 -17.0201426 14.77991665 -16.95703125 3.3515625 C-15.7014598 2.68726993 -14.4414655 2.03133291 -13.1796875 1.37890625 C-12.12793335 0.82964478 -12.12793335 0.82964478 -11.05493164 0.26928711 C-7.27529375 -1.38411203 -3.88585661 -1.28752934 0 0 Z " fill="#E5E6FA" transform="translate(651.95703125,790.6484375)"/>
<path d="M0 0 C5.09090909 2.09090909 5.09090909 2.09090909 7 4 C7.09496708 6.40348286 7.12558862 8.77810982 7.11352539 11.18188477 C7.11367142 11.93305573 7.11381744 12.68422668 7.1139679 13.4581604 C7.11326863 15.95260459 7.10547564 18.44697503 7.09765625 20.94140625 C7.09579212 22.66633564 7.09436819 24.39126557 7.09336853 26.11619568 C7.08954297 30.66512503 7.07971238 35.21402267 7.06866455 39.76293945 C7.05845124 44.40120006 7.05387108 49.03946577 7.04882812 53.67773438 C7.03809014 62.78517022 7.02101327 71.89258248 7 81 C5.75557212 81.66559784 4.50579739 82.32120417 3.25390625 82.97265625 C2.5585376 83.33883057 1.86316895 83.70500488 1.14672852 84.08227539 C-2.49297626 85.63824608 -5.05145915 85.43872676 -9 85 C-11.31 84.01 -13.62 83.02 -16 82 C-16 56.26 -16 30.52 -16 4 C-9.40453577 0.2311633 -7.01850907 -1.09544788 0 0 Z " fill="#E5E6FA" transform="translate(651,628)"/>
</svg>
